<?xml version="1.0" encoding="utf-8"?>
<!-- Generator: Adobe Illustrator 24.0.3, SVG Export Plug-In . SVG Version: 6.00 Build 0)  -->
<svg version="1.1" id="Layer_1" xmlns="http://www.w3.org/2000/svg" xmlns:xlink="http://www.w3.org/1999/xlink" x="0px" y="0px"
	 viewBox="0 0 500 500" style="enable-background:new 0 0 500 500;" xml:space="preserve">
<style type="text/css">
	.st0{fill:#0AC455;}
</style>
<g>
	<path d="M36.3,268.6l3.4-6c0.6-0.9,1.9-0.8,2.4-0.4c0.3,0.1,5.5,4,10.2,4c2.9,0,5-1.8,5-4.3c0-3-2.5-5.3-7.4-7.3
		c-6.2-2.4-14-7.3-14-15.9c0-7.1,5.5-14.3,16.6-14.3c7.5,0,13.2,3.8,15.4,5.4c0.9,0.5,0.7,1.8,0.4,2.3l-3.7,5.5
		c-0.5,0.8-1.8,1.4-2.4,0.9c-0.6-0.4-5.9-4.3-10.3-4.3c-2.6,0-4.5,1.7-4.5,3.7c0,2.7,2.2,4.7,7.8,7c5.6,2.2,14.5,6.6,14.5,16.4
		c0,7.4-6.4,14.9-17,14.9c-9.4,0-14.5-3.9-16.2-5.5C36,269.9,35.7,269.6,36.3,268.6z"/>
	<path d="M86.2,235.6H75.9c-0.8,0-1.4-0.6-1.4-1.4v-7.8c0-0.7,0.6-1.4,1.4-1.4h32c0.8,0,1.4,0.6,1.4,1.4v7.8c0,0.7-0.6,1.4-1.4,1.4
		H97.6v38.5c0,0.7-0.6,1.4-1.4,1.4h-8.6c-0.7,0-1.4-0.6-1.4-1.4V235.6z"/>
	<path d="M138.3,224.3c14.4,0,25.9,11.6,25.9,26c0,14.4-11.5,25.9-25.9,25.9c-14.4,0-25.9-11.4-25.9-25.9
		C112.5,235.9,123.9,224.3,138.3,224.3z M138.3,264.7c7.9,0,14.4-6.5,14.4-14.3c0-7.9-6.5-14.5-14.4-14.5c-7.8,0-14.3,6.6-14.3,14.5
		C124,258.2,130.5,264.7,138.3,264.7z"/>
	<path d="M195.3,224.3c7.2,0,12.5,2.2,17.4,6.7c0.6,0.6,0.6,1.4,0.1,2l-5.6,5.8c-0.5,0.5-1.3,0.5-1.8,0c-2.7-2.4-6.2-3.7-9.7-3.7
		c-8.1,0-14.1,6.8-14.1,14.8c0,8,6,14.6,14.2,14.6c3.4,0,7.1-1.2,9.6-3.5c0.5-0.4,1.4-0.4,1.9,0.1l5.6,6c0.5,0.5,0.4,1.4-0.1,1.9
		c-4.9,4.8-11.1,7-17.5,7c-14.4,0-26-11.4-26-25.9C169.3,235.9,180.9,224.3,195.3,224.3z"/>
	<path d="M221.4,226.8c0-0.9,0.7-1.7,1.7-1.7h8.4c0.9,0,1.7,0.8,1.7,1.7v18.9l16-19.9c0.3-0.4,0.9-0.7,1.4-0.7h9.1
		c1.4,0,2.1,1.6,1.3,2.7l-16.8,21.1l18.4,23.9c0.8,1.1,0,2.7-1.4,2.7h-9.9c-0.5,0-1.2-0.3-1.3-0.5l-16.6-22.6v21.5
		c0,0.9-0.8,1.7-1.7,1.7h-8.4c-1,0-1.7-0.8-1.7-1.7V226.8z"/>
	<path d="M267.8,267.9c0.4-0.4,0.7-0.9,1.1-1.4c0.7-0.9,1.5-1.5,2.5-0.6c0.5,0.4,5.8,5.5,12.2,5.5c5.8,0,9.6-3.7,9.6-7.9
		c0-5-4.3-7.9-12.6-11.4c-7.9-3.5-12.7-6.7-12.7-14.9c0-4.9,3.9-12.8,15.3-12.8c7.1,0,12.3,3.7,12.3,3.7c0.4,0.2,1.3,1.1,0.4,2.4
		c-0.3,0.4-0.6,0.9-0.9,1.4c-0.6,1-1.4,1.3-2.5,0.6c-0.5-0.3-5-3.3-9.4-3.3c-7.6,0-9.9,4.9-9.9,7.9c0,4.8,3.7,7.6,9.7,10.2
		c9.7,4,16,7.6,16,16c0,7.5-7.1,13-15.6,13c-8.5,0-14.3-5-15.2-5.8C267.6,269.8,266.9,269.3,267.8,267.9z"/>
	<path d="M316.5,229.9H304c-0.8,0-1.4-0.6-1.4-1.4v-2.1c0-0.7,0.6-1.4,1.4-1.4h30.5c0.8,0,1.4,0.6,1.4,1.4v2.1
		c0,0.7-0.6,1.4-1.4,1.4H322v44.2c0,0.7-0.6,1.4-1.4,1.4h-2.7c-0.7,0-1.4-0.6-1.4-1.4V229.9z"/>
	<path class="st0" d="M338.3,275.5h-2.9c-1.1,0-1.7-0.9-1.2-1.9l21.9-48.5c0.2-0.4,0.6-0.8,1.2-0.8h0.7c0.6,0,1,0.4,1.2,0.8
		l21.7,48.5c0.4,0.9-0.1,1.9-1.2,1.9h-2.9"/>
	<path d="M393.1,229.9h-12.5c-0.8,0-1.4-0.6-1.4-1.4v-2.1c0-0.7,0.6-1.4,1.4-1.4h30.5c0.8,0,1.4,0.6,1.4,1.4v2.1
		c0,0.7-0.6,1.4-1.4,1.4h-12.5v44.2c0,0.7-0.6,1.4-1.4,1.4h-2.7c-0.7,0-1.4-0.6-1.4-1.4V229.9z"/>
	<path d="M417.2,267.9c0.4-0.4,0.7-0.9,1.1-1.4c0.7-0.9,1.5-1.5,2.5-0.6c0.5,0.4,5.8,5.5,12.2,5.5c5.8,0,9.6-3.7,9.6-7.9
		c0-5-4.3-7.9-12.6-11.4c-7.9-3.5-12.7-6.7-12.7-14.9c0-4.9,3.9-12.8,15.3-12.8c7.1,0,12.3,3.7,12.3,3.7c0.4,0.2,1.3,1.1,0.4,2.4
		c-0.3,0.4-0.6,0.9-0.9,1.4c-0.6,1-1.4,1.3-2.5,0.6c-0.5-0.3-5-3.3-9.4-3.3c-7.6,0-9.9,4.9-9.9,7.9c0,4.8,3.7,7.6,9.7,10.2
		c9.7,4,16,7.6,16,16c0,7.5-7.1,13-15.6,13c-8.5,0-14.3-5-15.2-5.8C417,269.8,416.3,269.3,417.2,267.9z"/>
</g>
</svg>
